<?xml version="1.0" encoding="UTF-8"?>
<svg id="Layer_1" xmlns="http://www.w3.org/2000/svg" version="1.1" viewBox="0 0 1200 256.1">
  <!-- Generator: Adobe Illustrator 29.1.0, SVG Export Plug-In . SVG Version: 2.1.0 Build 93)  -->
  <defs>
    <style>
      .st0 {
        fill: #fff;
      }
    </style>
  </defs>
  <g>
    <path class="st0" d="M288.7,90h16.2v61.1h43.3v13.9h-59.5v-75Z"/>
    <path class="st0" d="M386,90h16.1l32.6,75h-16.5l-5.2-11.9h-38l-5.1,11.9h-16.5l32.6-75h0ZM407.5,140.3l-6-13.8-7.5-19.4c-2.6,7.7-5.1,14.2-7.4,19.4l-6,13.8h27,0Z"/>
    <path class="st0" d="M475.8,90h16.2v29.3h32v-29.3h16.2v75h-16.2v-31.8h-32v31.8h-16.2s0-75,0-75Z"/>
    <path class="st0" d="M556.4,90h59.1v13.9h-42.9v15.3h40.7v13.8h-40.7v18.2h44.4v13.9h-60.6v-75Z"/>
    <path class="st0" d="M628.6,90h32c10.6,0,18.9,2.7,24.8,8.2,5.9,5.4,8.8,12.4,8.8,20.8s-1.2,9.8-3.7,14c-2.5,4.2-5.9,7.7-10.4,10.3l15.6,21.8h-19.8l-11.6-17.4c-2.5.1-6.2.2-10.9.2h-8.7v17.1h-16.2v-75h0ZM661.4,133.9c4.9,0,8.7-1.4,11.6-4.3,2.9-2.8,4.3-6.4,4.3-10.8s-1.4-7.9-4.3-10.8-6.7-4.3-11.6-4.3h-16.7v30.1h16.5Z"/>
    <path class="st0" d="M707.9,90h32c10.6,0,18.9,2.7,24.8,8.2,5.9,5.4,8.8,12.4,8.8,20.8s-1.2,9.8-3.7,14c-2.5,4.2-5.9,7.7-10.4,10.3l15.6,21.8h-19.8l-11.6-17.4c-2.5.1-6.2.2-10.9.2h-8.7v17.1h-16.2v-75h0ZM740.6,133.9c4.9,0,8.7-1.4,11.6-4.3s4.3-6.4,4.3-10.8-1.4-7.9-4.3-10.8c-2.8-2.8-6.7-4.3-11.6-4.3h-16.7v30.1h16.5Z"/>
    <path class="st0" d="M812.2,90h16.1l32.6,75h-16.5l-5.2-11.9h-38l-5.1,11.9h-16.5l32.6-75h0ZM833.8,140.3l-6-13.8-7.5-19.4c-2.6,7.7-5.1,14.2-7.4,19.4l-6,13.8h27Z"/>
    <path class="st0" d="M869.6,90h30c12,0,21.7,3.6,29.1,10.8s11,16.1,11,26.7-3.7,19.5-11,26.7c-7.4,7.2-17.1,10.8-29.1,10.8h-30v-75h0ZM899.1,151.1c7.1,0,12.8-2.2,17.2-6.6,4.4-4.4,6.5-10.1,6.5-16.9s-2.2-12.5-6.5-16.9c-4.4-4.4-10.1-6.7-17.2-6.7h-13.3v47.2h13.3Z"/>
    <path class="st0" d="M960.6,157.6c-6.2-5.7-9.3-13.1-9.3-22.2v-45.5h16v44.8c0,4.9,1.6,8.9,4.7,12,3.1,3.1,7,4.7,11.5,4.7s8.4-1.6,11.5-4.7c3.1-3.1,4.6-7.1,4.6-12v-44.8h16.1v45.5c0,9-3.1,16.4-9.3,22.1s-13.8,8.6-22.8,8.6-16.6-2.8-22.8-8.5h0Z"/>
    <path class="st0" d="M1030.7,90h32.1c10.6,0,18.9,2.7,24.8,8.2,5.9,5.4,8.8,12.4,8.8,20.8s-1.2,9.8-3.7,14-5.9,7.7-10.4,10.3l15.6,21.8h-19.8l-11.6-17.4c-2.5.1-6.2.2-10.9.2h-8.7v17.1h-16.2v-75h0ZM1063.4,133.9c4.9,0,8.7-1.4,11.6-4.3,2.9-2.8,4.3-6.4,4.3-10.8s-1.4-7.9-4.3-10.8-6.7-4.3-11.6-4.3h-16.7v30.1h16.6,0Z"/>
    <path class="st0" d="M1135,90h16.1l32.6,75h-16.5l-5.2-11.9h-37.9l-5.1,11.9h-16.5l32.6-75h0ZM1156.5,140.3l-6-13.8-7.5-19.4c-2.6,7.7-5.1,14.2-7.4,19.4l-6,13.8h27Z"/>
  </g>
  <g>
    <path class="st0" d="M126.2,192.8c-3.4,0-6.1,2.7-6.1,6.1s2.7,6.1,6.1,6.1,6.1-2.7,6.1-6.1-2.8-6.1-6.1-6.1Z"/>
    <path class="st0" d="M70.6,156c-3.4,0-6.1,2.7-6.1,6.1s2.7,6.1,6.1,6.1,6.1-2.7,6.1-6.1-2.7-6.1-6.1-6.1Z"/>
    <path class="st0" d="M54.8,123.3c-3.4,0-6.1,2.7-6.1,6.1s2.7,6.1,6.1,6.1,6.1-2.8,6.1-6.1-2.7-6.1-6.1-6.1Z"/>
    <path class="st0" d="M158.3,179.6c-3.4,0-6.1,2.7-6.1,6.1s2.7,6.1,6.1,6.1,6.1-2.7,6.1-6.1-2.7-6.1-6.1-6.1Z"/>
    <path class="st0" d="M57.1,87.4c-3.4,0-6.1,2.7-6.1,6.1s2.7,6.1,6.1,6.1,6.1-2.7,6.1-6.1-2.7-6.1-6.1-6.1Z"/>
    <path class="st0" d="M94.1,179.6c-3.4,0-6.1,2.7-6.1,6.1s2.7,6.1,6.1,6.1,6.1-2.7,6.1-6.1-2.7-6.1-6.1-6.1Z"/>
    <path class="st0" d="M197.9,123.5c-3.4,0-6.1,2.7-6.1,6.1s2.7,6.1,6.1,6.1,6.1-2.7,6.1-6.1-2.7-6.1-6.1-6.1Z"/>
    <path class="st0" d="M126.2,15.1c-61.8,0-111.8,50.1-111.8,111.8s50.1,111.8,111.8,111.8,111.8-50.1,111.8-111.8S187.9,15.1,126.2,15.1ZM192.9,166.4c-9.5,14.4-38.2,44.1-66.7,44.1s-57.2-29.7-66.7-44.1c-23.2-35.2-25.3-66.3-5.9-87.5,19.1-21,48.5-14.6,67.9-2.6,2.6,1.7,4,2.9,4.7,3.9.7-1,2.2-2.3,4.8-3.9,19.3-11.9,48.7-18.3,67.9,2.6,19.3,21.2,17.2,52.3-5.9,87.5h0Z"/>
    <path class="st0" d="M181.8,156c-3.4,0-6.1,2.7-6.1,6.1s2.7,6.1,6.1,6.1,6.1-2.7,6.1-6.1-2.7-6.1-6.1-6.1Z"/>
    <path class="st0" d="M201.4,93.5c0-3.4-2.7-6.1-6.1-6.1s-6.1,2.7-6.1,6.1,2.7,6.1,6.1,6.1,6.1-2.7,6.1-6.1Z"/>
    <path class="st0" d="M156.3,89.9c-5,1.7-7.8,6.1-14.1,6.1s-9.8-8.9-16-13.1c-6.1,4.2-7.8,13.1-16,13.1s-9.2-4.4-14.2-6.1c-8.2-2.5-18.4-3.2-25.4,4.5-15.6,17.1-1.6,44.4,8.1,59.2,7.9,12.1,30.6,33.7,47.4,33.7s39.4-21.6,47.4-33.7c9.7-14.8,23.7-42.1,8.1-59.2-7-7.7-17.2-7.1-25.4-4.5h0Z"/>
  </g>
</svg>